<svg width="36" height="35" viewBox="0 0 36 35" fill="none" xmlns="http://www.w3.org/2000/svg">
<path fill-rule="evenodd" clip-rule="evenodd" d="M18 0C27.6652 0 35.5 8.03237 35.5 17.9426C35.5 25.8683 30.4915 32.5919 23.5422 34.9666C22.655 35.1434 22.34 34.5831 22.34 34.1053C22.34 33.5138 22.361 31.5819 22.361 29.1809C22.361 27.5079 21.801 26.416 21.1728 25.8595C25.07 25.415 29.165 23.8976 29.165 17.0061C29.165 15.0461 28.486 13.4467 27.3625 12.1902C27.5445 11.7369 28.1447 9.91191 27.191 7.44091C27.191 7.44091 25.7245 6.96013 22.3837 9.28063C20.9855 8.88338 19.4875 8.6835 18 8.6765C16.5125 8.6835 15.0163 8.88338 13.6198 9.28063C10.2755 6.96013 8.8055 7.44091 8.8055 7.44091C7.85525 9.91191 8.4555 11.7369 8.63575 12.1902C7.5175 13.4467 6.83326 15.0461 6.83326 17.0061C6.83326 23.8801 10.9195 25.4207 14.8063 25.874C14.3058 26.322 13.8525 27.1123 13.695 28.2726C12.6975 28.7311 10.1635 29.5246 8.6025 26.7823C8.6025 26.7823 7.67675 25.0583 5.91975 24.9323C5.91975 24.9323 4.2135 24.9097 5.80075 26.0227C5.80075 26.0227 6.947 26.5739 7.74325 28.6477C7.74325 28.6477 8.77051 31.8501 13.639 30.7651C13.6478 32.2648 13.6635 33.6783 13.6635 34.1053C13.6635 34.5796 13.3415 35.1346 12.4682 34.9683C5.51374 32.5971 0.5 25.8701 0.5 17.9426C0.5 8.03237 8.3365 0 18 0Z" fill="white"/>
</svg>
