<svg width="21" height="19" viewBox="0 0 21 19" fill="none" xmlns="http://www.w3.org/2000/svg">
<path d="M20.3287 0.395173C20.1673 0.25569 19.9708 0.163063 19.7604 0.127339C19.5501 0.0916144 19.334 0.114155 19.1356 0.192517L1.11243 7.27307C0.87682 7.36563 0.67752 7.53199 0.544349 7.74726C0.411177 7.96253 0.351296 8.21513 0.373665 8.46728C0.396034 8.71942 0.499451 8.95754 0.66844 9.14601C0.83743 9.33447 1.0629 9.46315 1.31112 9.51278L6.20314 10.4912V16.5296C6.20069 16.7619 6.26844 16.9896 6.39752 17.1827C6.52659 17.3759 6.71098 17.5256 6.92655 17.6122C7.07096 17.6727 7.22589 17.704 7.38245 17.7045C7.53544 17.704 7.68681 17.6731 7.82779 17.6137C7.96876 17.5542 8.09652 17.4674 8.20366 17.3582L10.9963 14.5656L15.1167 18.1916C15.329 18.3802 15.6031 18.4845 15.887 18.4848C16.0105 18.4846 16.1331 18.4651 16.2506 18.4271C16.4442 18.3656 16.6184 18.2545 16.7557 18.1048C16.893 17.955 16.9887 17.7719 17.0331 17.5736L20.7063 1.54502C20.7543 1.33715 20.7445 1.12011 20.6779 0.917432C20.6113 0.714749 20.4906 0.534142 20.3287 0.395173ZM1.15186 8.39822C1.14214 8.31383 1.16117 8.22864 1.20586 8.1564C1.25055 8.08417 1.3183 8.02912 1.39815 8.00015L17.9192 1.50971L6.50317 9.75456L1.46433 8.74679C1.38063 8.73231 1.30426 8.69002 1.24756 8.62677C1.19085 8.56352 1.15714 8.483 1.15186 8.39822ZM7.6512 16.8058C7.59657 16.8604 7.52697 16.8976 7.4512 16.9127C7.37543 16.9278 7.2969 16.9201 7.22552 16.8905C7.15415 16.8609 7.09314 16.8109 7.05022 16.7466C7.0073 16.6824 6.98439 16.6069 6.98439 16.5296V11.0351L10.4086 14.0485L7.6512 16.8058ZM19.9448 1.3705L16.2716 17.3991C16.2565 17.465 16.2245 17.5259 16.1788 17.5758C16.133 17.6257 16.0751 17.6628 16.0107 17.6836C15.9463 17.7044 15.8776 17.708 15.8114 17.6943C15.7451 17.6805 15.6836 17.6498 15.6328 17.6051L7.21928 10.2011L19.8817 1.05612C19.915 1.10049 19.938 1.15175 19.9489 1.20615C19.9598 1.26055 19.9584 1.3167 19.9448 1.3705Z" fill="#6C63FF"/>
</svg>
