<svg width="36" height="35" viewBox="0 0 36 35" fill="none" xmlns="http://www.w3.org/2000/svg">
<path d="M34.7997 0.54162C34.5223 0.275921 34.1845 0.0994793 33.8231 0.0314286C33.4617 -0.0366221 33.0903 0.00631557 32.7493 0.155585L1.7774 13.6432C1.37253 13.8195 1.03004 14.1363 0.801192 14.5464C0.572343 14.9565 0.46944 15.4377 0.50788 15.918C0.54632 16.3983 0.724037 16.8519 1.01444 17.2109C1.30484 17.5699 1.6923 17.815 2.11886 17.9095L10.5255 19.7734V31.2757C10.5213 31.7182 10.6378 32.1519 10.8596 32.5198C11.0814 32.8878 11.3983 33.1729 11.7687 33.338C12.0169 33.4531 12.2831 33.5128 12.5521 33.5136C12.815 33.5127 13.0752 33.4539 13.3174 33.3407C13.5597 33.2275 13.7792 33.062 13.9633 32.854L18.7623 27.5345L25.8431 34.4416C26.2079 34.8008 26.6789 34.9994 27.1669 35C27.379 34.9997 27.5898 34.9626 27.7916 34.8901C28.1244 34.7731 28.4237 34.5614 28.6597 34.2762C28.8956 33.9909 29.06 33.642 29.1363 33.2644L35.4486 2.73193C35.531 2.33596 35.5141 1.92254 35.3997 1.53646C35.2853 1.15037 35.0778 0.806338 34.7997 0.54162ZM1.84517 15.7864C1.82847 15.6257 1.86117 15.4634 1.93797 15.3258C2.01477 15.1882 2.13119 15.0833 2.26841 15.0281L30.659 2.66467L11.0411 18.3701L2.38214 16.4504C2.2383 16.4228 2.10706 16.3423 2.00962 16.2218C1.91218 16.1013 1.85424 15.9479 1.84517 15.7864ZM13.014 31.8018C12.9201 31.9059 12.8005 31.9767 12.6703 32.0055C12.5401 32.0342 12.4051 32.0194 12.2825 31.9631C12.1598 31.9068 12.055 31.8115 11.9812 31.6891C11.9075 31.5667 11.8681 31.4229 11.8681 31.2757V20.8093L17.7524 26.5494L13.014 31.8018ZM34.14 2.39949L27.8277 32.9319C27.8017 33.0576 27.7467 33.1736 27.6682 33.2686C27.5896 33.3636 27.4901 33.4343 27.3794 33.4739C27.2687 33.5134 27.1507 33.5204 27.0368 33.4942C26.923 33.468 26.8172 33.4095 26.7299 33.3243L12.2717 19.2207L34.0315 1.80064C34.0887 1.88516 34.1282 1.98281 34.1469 2.08643C34.1657 2.19005 34.1633 2.29702 34.14 2.39949Z" fill="white"/>
</svg>
