<svg width="48" height="48" viewBox="0 0 48 48" fill="none" xmlns="http://www.w3.org/2000/svg">
<path fill-rule="evenodd" clip-rule="evenodd" d="M9.74603 12C8.78173 12 8 12.7767 8 13.7347C8 14.6927 8.78173 15.4694 9.74603 15.4694H37.6825C38.6469 15.4694 39.4286 14.6927 39.4286 13.7347C39.4286 12.7767 38.6469 12 37.6825 12H9.74603ZM14.9841 24.1429C14.9841 23.1848 15.7659 22.4082 16.7302 22.4082H37.6825C38.6469 22.4082 39.4286 23.1848 39.4286 24.1429C39.4286 25.1009 38.6469 25.8776 37.6825 25.8776H16.7302C15.7659 25.8776 14.9841 25.1009 14.9841 24.1429ZM25.4603 34.551C25.4603 33.5929 26.242 32.8163 27.2064 32.8163H37.6825C38.6469 32.8163 39.4286 33.5929 39.4286 34.551C39.4286 35.5091 38.6469 36.2857 37.6825 36.2857H27.2064C26.242 36.2857 25.4603 35.5091 25.4603 34.551Z" fill="black"/>
</svg>
